PathFileType	4	(X/Y/Z)	D:\TRACE\spotREDO_2-26-24\spot_Both_Motion_3_5-v60.trc
DataRate	CameraRate	NumFrames	NumMarkers	Units	OrigDataRate	OrigDataStartFrame	OrigNumFrames
100.00	100.00	      31	9	mm	100.00	876	      7000
Frame#	Time	front left toe			Front right toe			aft left toe			aft right toe			Arm			FL body			FR body			AL Body			AR Body			
		X1	Y1	Z1	X2	Y2	Z2	X3	Y3	Z3	X4	Y4	Z4	X5	Y5	Z5	X6	Y6	Z6	X7	Y7	Z7	X8	Y8	Z8	X9	Y9	Z9	

876	8.750	-226.02548	-7.91204	-478.76892	180.67525	-7.58530	-547.98083	-273.39792	19.35649	104.61230	151.11592	33.99488	145.87477	40.34953	662.02863	-777.96008	-137.06349	528.64661	-564.76794	17.82454	532.86639	-555.78174	-196.17159	574.87213	316.03409	-49.44960	568.95953	327.84366	
877	8.760	-225.69479	-8.20499	-478.91724	180.72174	-7.66917	-547.95825	-273.25589	19.38963	104.58652	151.39935	34.19702	146.07983	40.24226	662.11835	-778.28497	-137.57979	528.67841	-565.15179	17.39896	532.75623	-556.15613	-196.71671	575.11371	315.59885	-49.86501	569.10223	327.44223	
878	8.770	-225.63702	-8.31396	-478.97522	180.79152	-7.66432	-547.96533	-273.16403	19.54675	104.58674	151.81033	34.52265	146.36438	40.44518	662.01434	-778.61621	-137.83932	528.46045	-565.43787	17.15371	532.87738	-556.80145	-196.96800	575.19110	315.14359	-50.17708	569.23035	327.04700	
879	8.780	-225.45836	-8.34528	-479.06134	180.69313	-7.77256	-548.04358	-272.99869	19.70418	104.51201	152.38277	34.91846	146.67938	40.30491	661.98492	-778.87756	-138.09998	528.54785	-566.02759	17.23478	532.86884	-557.05676	-196.97169	575.33624	314.68951	-50.40967	569.54993	326.59018	
880	8.790	-225.29324	-8.41807	-479.13831	181.04669	-7.86302	-548.15009	-272.84637	19.85626	104.46160	152.38174	34.43199	145.79730	40.20455	661.93835	-779.16779	-138.08109	528.44025	-566.39777	17.06403	532.95166	-557.55853	-197.00244	575.43207	314.19400	-50.60950	569.77271	326.09909	
881	8.800	-225.07570	-8.63282	-479.23431	181.49686	-7.95516	-548.24042	-272.63678	19.89488	104.44015	152.44044	34.22883	145.47382	39.99255	661.68817	-779.42480	-138.05580	528.28925	-566.92365	17.05257	532.84283	-558.03583	-197.00012	575.44861	313.68762	-50.49457	569.83105	325.67624	
882	8.810	-224.95358	-8.77127	-479.23178	181.80054	-8.08201	-548.32758	-272.26627	19.80591	104.36685	152.73459	34.17665	145.36742	39.96730	661.41199	-779.56348	-137.82382	528.05328	-567.27679	17.11849	532.67963	-558.40698	-196.92023	575.62463	313.56439	-50.39222	569.86792	325.24045	
883	8.820	-224.69078	-8.86242	-479.33829	182.05133	-8.20291	-548.40784	-271.79492	19.70514	104.33333	152.97949	34.13419	145.39963	40.39201	661.16162	-779.92883	-137.60448	527.81836	-567.66211	17.47630	532.40588	-558.43896	-196.80046	575.65717	313.06100	-50.31232	570.04346	324.74789	
884	8.830	-224.45122	-8.90273	-479.41293	182.41115	-8.31407	-548.29163	-271.54224	19.78544	104.21780	153.40575	34.16512	145.73068	40.45677	661.23932	-779.94745	-137.44328	527.89343	-568.27386	17.60690	532.64563	-559.31921	-196.48347	575.79889	312.55261	-49.92864	570.07178	324.49805	
885	8.840	-224.16502	-8.93483	-479.48264	182.47118	-8.62473	-548.53754	-271.31586	19.87444	104.14345	153.63628	34.16229	145.80396	40.41637	661.33557	-779.81635	-137.13983	527.96021	-568.63074	17.97143	532.48389	-559.71710	-196.16391	575.88434	312.07913	-49.63449	570.20667	324.03796	
886	8.850	-223.90874	-9.05978	-479.58304	182.66423	-8.97244	-548.48810	-271.15527	19.97441	103.99281	153.66115	34.07795	145.51071	40.91128	661.27466	-779.90186	-136.66052	527.85394	-569.06909	18.30189	532.30524	-560.08319	-195.80898	575.86664	311.62900	-49.21405	570.19446	323.50079	
887	8.860	-223.87094	-9.36773	-479.71698	183.01263	-9.06863	-548.29114	-271.01190	20.03127	103.84428	154.39052	34.53153	145.94931	41.64655	661.31293	-779.93085	-136.01001	527.63354	-569.46069	18.85388	532.11981	-560.53729	-195.68825	575.77063	311.25662	-48.90622	570.07922	323.09689	
888	8.870	-223.48238	-9.32094	-479.71359	183.29002	-9.21035	-548.28900	-270.92496	20.10952	103.76029	154.78790	34.78631	145.98914	42.35791	661.29584	-780.03461	-135.78285	527.71735	-569.83734	19.32660	532.16431	-561.17090	-195.28163	575.72192	310.69000	-48.60730	569.94354	322.62921	
889	8.880	-223.10219	-9.45520	-479.82126	183.52937	-9.29111	-548.29456	-270.77432	20.11763	103.65127	154.93669	34.45658	145.51062	42.88116	661.27002	-780.01404	-134.94873	527.63757	-570.32770	20.26628	531.89563	-560.74280	-194.77533	575.66736	310.23819	-48.05085	569.65961	322.09875	
890	8.890	-222.85139	-9.39228	-479.86591	184.11414	-9.26982	-548.36401	-270.55151	20.12533	103.69276	155.16487	34.31250	145.11969	43.27607	661.30145	-779.98218	-134.49889	527.90405	-570.80573	20.93213	532.03497	-561.10205	-194.40982	575.45087	309.82837	-47.51296	569.50043	321.80371	
891	8.900	-222.66042	-9.44491	-479.95990	184.28554	-9.27362	-548.29791	-270.38907	20.22022	103.62717	155.10696	34.31089	144.91153	43.46270	660.99213	-779.99237	-133.56412	528.32440	-571.31195	21.63194	532.41650	-561.37946	-194.11334	575.21466	309.52225	-47.37801	569.29260	321.64093	
892	8.910	-222.45035	-9.44755	-480.03940	184.44308	-9.85602	-548.55536	-270.19400	20.16814	103.51392	155.07407	34.28225	144.83072	43.53158	659.88251	-780.42609	-132.68466	528.63129	-571.45544	22.53110	532.80579	-561.60931	-193.88171	574.51697	309.22659	-47.13466	568.64014	321.48318	
893	8.920	-222.19505	-9.49920	-480.15836	184.66649	-9.95911	-548.53265	-269.99689	20.08429	103.54491	155.13095	34.30227	144.93013	42.73529	658.27789	-782.13324	-131.61092	528.87598	-571.42242	23.29697	533.04968	-561.56042	-193.48689	573.95892	309.17746	-47.01777	568.07526	321.49551	
894	8.930	-222.06339	-9.56963	-480.28937	184.79520	-10.27816	-548.54102	-269.81799	20.06781	103.43943	155.12413	34.22790	144.96054	42.21133	655.99200	-783.87946	-130.71663	529.51538	-571.54755	24.50636	533.25574	-561.41248	-193.31641	573.65509	309.13049	-46.63540	567.43298	321.56250	
895	8.940	-221.72768	-9.57124	-480.39236	185.07587	-10.48578	-548.44543	-269.65118	20.07690	103.44218	155.16760	34.32419	144.99843	40.65056	654.14618	-785.59613	-129.61121	529.53540	-571.59015	25.40610	533.22461	-561.36310	-192.65022	573.53864	309.03574	-46.08387	567.16113	321.71970	
896	8.950	-221.44986	-9.52472	-480.47137	185.46600	-10.66032	-548.21252	-269.29504	20.12576	103.50030	155.32657	34.30105	145.07878	39.76356	652.32928	-787.64471	-128.91006	529.48871	-571.38855	26.17768	533.11682	-561.93170	-191.98520	573.71558	309.03214	-45.34902	567.13312	321.75845	
897	8.960	-221.28825	-9.54060	-480.42307	185.68579	-10.93957	-548.27954	-269.01334	20.25072	103.47559	155.53764	34.45184	145.22636	39.56430	650.68243	-788.71613	-127.95126	528.85651	-571.07935	26.96514	532.56616	-561.81696	-191.44728	573.97015	309.03510	-44.83140	567.24048	321.66516	
898	8.970	-221.15730	-9.62431	-480.39352	185.83432	-11.07353	-548.31824	-268.89081	20.48281	103.40079	155.89575	34.26702	145.21686	39.07952	649.92273	-790.08173	-127.67926	528.37372	-571.17609	27.71240	532.03571	-561.81073	-190.11543	574.18665	309.15240	-43.66451	567.41852	321.86514	
899	8.980	-221.01656	-9.84119	-480.26462	186.00867	-11.02218	-548.30670	-268.56033	20.71574	103.35674	156.20352	34.10765	145.13959	39.85439	649.34259	-790.81299	-127.13522	527.78278	-571.31573	27.87900	531.32037	-562.01080	-188.93764	574.40814	309.12573	-42.18715	567.70850	321.58875	
900	8.990	-220.90674	-9.98544	-480.17609	185.94299	-11.01542	-548.42133	-268.34027	20.94683	103.31487	156.61218	34.08006	145.19098	40.61035	649.16687	-790.62726	-127.00336	527.29718	-571.27551	27.91693	530.76355	-562.24060	-187.22321	574.50671	309.30637	-40.46849	567.67761	321.31894	
901	9.000	-220.83206	-10.09091	-480.07205	185.83279	-10.95847	-548.58911	-268.07071	21.18126	103.44032	157.17862	34.39866	145.48613	41.76546	649.22424	-790.24408	-126.89302	526.89063	-571.12268	28.41540	530.02100	-561.74237	-185.41859	574.72522	309.41223	-38.86232	567.69775	321.17157	
902	9.010	-220.70532	-10.22330	-479.97180	185.77968	-10.96053	-548.83240	-267.98587	21.29930	103.38182	157.50121	34.06728	145.36252	42.80729	649.83502	-790.03986	-126.60498	526.68988	-571.04401	28.40820	530.02490	-562.57111	-184.05608	574.67297	309.56720	-37.29364	567.67407	321.14917	
903	9.020	-220.65251	-10.19342	-479.93237	185.88138	-10.99784	-548.79559	-267.97238	21.43125	103.38338	157.77866	34.16956	145.51694	43.89538	650.48877	-789.50006	-126.24605	526.65051	-570.99066	28.76011	529.79993	-562.74158	-182.80865	574.72345	309.67999	-36.09976	567.59772	321.09225	
904	9.030	-220.52151	-10.16923	-479.97937	186.16479	-11.02754	-548.84131	-267.83688	21.48528	103.25904	157.47881	33.70050	144.67268	44.86136	650.84222	-789.12634	-125.77728	526.88550	-571.21271	29.39436	529.69214	-562.77948	-181.49736	574.49048	309.68488	-34.97974	567.19421	321.20221	
905	9.040	-220.17169	-10.26082	-480.06039	186.25438	-11.12434	-548.79266	-267.66803	21.39431	103.21659	157.56532	33.72415	144.75655	45.52457	651.58246	-788.78711	-124.50732	526.94244	-570.95996	30.54018	529.44757	-562.08685	-180.90118	574.26404	309.74228	-34.28467	566.84058	321.33286	
906	9.050	-219.95944	-10.14824	-480.08682	186.59879	-11.21813	-548.51495	-267.78940	21.32739	103.23686	157.63098	33.63014	144.81905	45.75789	652.21063	-788.75964	-123.53039	527.05731	-570.91388	31.63296	529.87506	-562.49377	-180.08035	573.92529	309.96921	-33.57869	566.57910	321.46063	
